{"title":"River Of Darkness 2010 DvDRip XviD Feel-Free","uid":6162661,"size":872833620,"categoryP":"video","categoryS":"movies","magnet":"?xt=urn:btih:b9aee8f5b911087e9bae8e26820447ea139da1d2&amp;dn=River+Of+Darkness+2010+DvDRip+XviD+Feel-Free&amp;tr=udp%3A%2F%2Ftracker.openbittorrent.com%3A80&amp;tr=udp%3A%2F%2Fopen.demonii.com%3A1337&amp;tr=udp%3A%2F%2Ftracker.coppersurfer.tk%3A6969&amp;tr=udp%3A%2F%2Fexodus.desync.com%3A6969","seeders":0,"leechers":1,"uploader":"hiest","files":-1,"time":1297268339,"description":"Genre:Horror\nLanguage:English\nIMDb:http://www.imdb.com/title/tt1421049/\nSource:DVD\n\n\nFormat : AVI\nFormat/Info : Audio Video Interleave\nFile size : 830 MiB\nDuration : 1h 24mn\nOverall bit rate : 1 380 Kbps\n\n\nVideo\nCodec ID/Hint : XviD\nDuration : 1h 24mn\nBit rate : 1 243 Kbps\nWidth : 720 pixels\nHeight : 304 pixels\nDisplay aspect ratio : 2.35:1\nFrame rate : 25.000 fps\nColor space : YUV\nChroma subsampling : 4:2:0\nBit depth : 8 bits\nScan type : Progressive\nBits/(Pixel*Frame) : 0.227\nStream size : 748 MiB (90%)\nWriting library : XviD 1.2.1\n\nAudio\nID : 1\nFormat : MPEG Audio\nFormat version : Version 1\nFormat profile : Layer 3\nMode : Joint stereo\nCodec ID : 55\nCodec ID/Hint : MP3\nDuration : 1h 24mn\nBit rate mode : Constant\nBit rate : 128 Kbps\nChannel(s) : 2 channels\nSampling rate : 48.0 KHz\nVideo delay : 816ms\nStream size : 77.0 MiB (9%)\nAlignment : Split accross interleaves\nInterleave, duration : 40 ms (1.00 video frame)\nInterleave, preload duration : 504 ms\n\n\nPlot:\nWhen brutal murdering starts in a small riverside town, the sheriff must investigate and face the horrific past\n\n\n\n\n\n\n\n================================== &lt;a href=&quot;\nhttp://thepiratebay.se/user/hiest&quot; rel=&quot;nofollow&quot; target=&quot;_NEW&quot;&gt;\nhttp://thepiratebay.se/user/hiest&lt;/a&gt;\n==================================","torrent":{"xt":"urn:btih:b9aee8f5b911087e9bae8e26820447ea139da1d2","amp;dn":"River+Of+Darkness+2010+DvDRip+XviD+Feel-Free","amp;tr":["udp%3A%2F%2Ftracker.openbittorrent.com%3A80","udp%3A%2F%2Fopen.demonii.com%3A1337","udp%3A%2F%2Ftracker.coppersurfer.tk%3A6969","udp%3A%2F%2Fexodus.desync.com%3A6969"],"infoHash":"b9aee8f5b911087e9bae8e26820447ea139da1d2","infoHashBuffer":{"type":"Buffer","data":[185,174,232,245,185,17,8,126,155,174,142,38,130,4,71,234,19,157,161,210]},"announce":[],"urlList":[]}}